<svg width="326" height="326" viewBox="0 0 326 326" fill="none" xmlns="http://www.w3.org/2000/svg">
<g id="cookies-svgrepo-com 1" clip-path="url(#clip0_1_70)">
<g id="cookie">
<g id="cookie_2">
<path id="Vector" d="M300.391 158.135L284.892 161.235C279.735 162.266 274.551 159.584 272.415 154.777L255.814 117.424C254.409 114.261 251.625 111.923 248.268 111.083L239.62 108.921C234.615 107.67 231.105 103.174 231.105 98.0157V38.0776C231.105 35.2767 230.059 32.5763 228.172 30.5057L207.292 7.59277C188.466 1.63117 168.172 -1.0284 147.074 0.36092C65.9845 5.70299 0.294895 71.6671 -4.65305 152.781C-10.4262 247.434 64.629 326 158.035 326C247.127 326 319.478 254.512 320.965 165.775L307.623 159.104C305.387 157.986 302.842 157.645 300.391 158.135Z" fill="#FFE6A1"/>
</g>
<g id="Group">
<path id="Vector_2" d="M213.621 275.413C212.632 275.413 211.657 275.357 210.672 275.339C204.496 282.267 195.529 286.655 185.518 286.655C170.771 286.655 158.269 277.174 153.686 263.989C133.515 256.006 115.322 244.13 100.032 229.264C97.7185 229.961 95.3162 230.448 92.7757 230.448C78.8067 230.448 67.4827 219.124 67.4827 205.155C67.4827 200.276 68.9293 195.761 71.3221 191.898C71.1508 191.591 70.9681 191.294 70.798 190.986C53.2533 189.797 39.3798 175.226 39.3798 157.379C39.3798 146.861 44.1972 137.473 51.743 131.288C51.0279 125.092 50.6211 118.802 50.6211 112.413C50.6211 80.3552 59.9133 50.4848 75.8969 25.2759C30.3167 54.1753 0.0350342 105.036 0.0350342 163C0.0350342 253.023 73.0126 326 163.035 326C220.999 326 271.859 295.718 300.759 250.138C275.55 266.122 245.68 275.413 213.621 275.413Z" fill="#EDC788"/>
<path id="Vector_3" d="M126.501 134.896C134.261 134.896 140.552 128.605 140.552 120.845C140.552 113.084 134.261 106.793 126.501 106.793C118.74 106.793 112.449 113.084 112.449 120.845C112.449 128.605 118.74 134.896 126.501 134.896Z" fill="#EDC788"/>
<path id="Vector_4" d="M275.449 227.638C283.21 227.638 289.501 221.347 289.501 213.586C289.501 205.826 283.21 199.534 275.449 199.534C267.688 199.534 261.397 205.826 261.397 213.586C261.397 221.347 267.688 227.638 275.449 227.638Z" fill="#EDC788"/>
<path id="Vector_5" d="M147.578 227.638C153.01 227.638 157.414 223.234 157.414 217.802C157.414 212.37 153.01 207.966 147.578 207.966C142.146 207.966 137.742 212.37 137.742 217.802C137.742 223.234 142.146 227.638 147.578 227.638Z" fill="#EDC788"/>
<path id="Vector_6" d="M223.458 137.706C228.89 137.706 233.294 133.303 233.294 127.87C233.294 122.438 228.89 118.034 223.458 118.034C218.025 118.034 213.622 122.438 213.622 127.87C213.622 133.303 218.025 137.706 223.458 137.706Z" fill="#EDC788"/>
<path id="Vector_7" d="M184.113 50.5861C189.545 50.5861 193.949 46.1824 193.949 40.7501C193.949 35.3178 189.545 30.9141 184.113 30.9141C178.681 30.9141 174.277 35.3178 174.277 40.7501C174.277 46.1824 178.681 50.5861 184.113 50.5861Z" fill="#EDC788"/>
</g>
<g id="Group_2">
<path id="Vector_8" d="M154.856 144.781L148.358 155.611C144.474 162.084 147.948 170.469 155.271 172.3L174.612 177.135C180.635 178.641 186.739 174.979 188.244 168.956L190.457 160.105C190.904 158.315 190.904 156.443 190.457 154.653L188.117 145.295C186.662 139.473 180.891 135.821 175.007 136.998L162.291 139.541C159.185 140.163 156.486 142.065 154.856 144.781Z" fill="#B97850"/>
<path id="Vector_9" d="M187.298 214.366L180.522 225.66C177.153 231.275 179.277 238.57 185.134 241.499L206.707 252.285C213.139 255.502 220.896 251.934 222.64 244.957L224.862 236.069L227.46 225.678C229.076 219.211 224.743 212.766 218.143 211.823L198.526 209.02C194.05 208.381 189.625 210.488 187.298 214.366Z" fill="#B97850"/>
<path id="Vector_10" d="M69.0286 147.31L60.7582 161.094C58.1044 165.518 58.8016 171.179 62.4487 174.827L75.4645 187.844C80.2024 192.581 88.006 192.149 92.1918 186.917L103.35 172.969C105.542 170.229 106.329 166.624 105.478 163.22L102.933 153.04C101.879 148.825 98.4915 145.595 94.2318 144.743L80.8722 142.071C76.2139 141.139 71.4729 143.236 69.0286 147.31Z" fill="#B97850"/>
<path id="Vector_11" d="M114.795 56.0434L108.417 66.6728C104.717 72.8394 107.679 80.8468 114.502 83.1211L128.341 87.7342C132.38 89.0802 136.833 88.029 139.844 85.0186L147.293 77.5696C150.085 74.7776 151.208 70.7249 150.25 66.8944L148.302 59.1016C147.051 54.0963 142.554 50.5854 137.396 50.5854H124.433C120.486 50.5861 116.826 52.658 114.795 56.0434Z" fill="#B97850"/>
<path id="Vector_12" d="M250.559 142.924L244.052 149.431C239.663 153.82 239.663 160.938 244.052 165.328L247.237 168.513C250.658 171.934 255.885 172.783 260.213 170.618L278.625 161.413C283.337 159.056 285.782 153.743 284.504 148.632L283.67 145.296C282.215 139.474 276.444 135.822 270.56 136.999L256.304 139.85C254.127 140.284 252.129 141.355 250.559 142.924Z" fill="#B97850"/>
<path id="Vector_13" d="M208.76 62.6889L201.295 72.6434C198.553 76.2994 198.297 81.2531 200.649 85.1721L207.556 96.6846C210.858 102.188 218.091 103.815 223.431 100.255L237.458 90.9032C242.828 87.3236 244.087 79.9676 240.216 74.805L232.59 64.6379C231.218 62.8086 229.321 61.4409 227.152 60.7183L221.308 58.7699C216.717 57.2386 211.663 58.8177 208.76 62.6889Z" fill="#B97850"/>
<path id="Vector_14" d="M112.565 240.288L105.225 249.463C100.512 255.353 102.824 264.121 109.828 266.923L119.688 270.867C122.368 271.939 125.358 271.939 128.038 270.867L139.103 266.441C145.732 263.789 148.242 255.709 144.282 249.768L142.381 246.917C141.296 245.289 139.805 243.973 138.055 243.098L126.371 237.256C121.629 234.885 115.876 236.149 112.565 240.288Z" fill="#B97850"/>
</g>
<g id="Group_3">
<path id="Vector_15" d="M89.4131 186.508L76.3973 173.492C72.7502 169.845 72.0523 164.183 74.7068 159.76L82.9772 145.976C83.6827 144.8 84.6148 143.846 85.6457 143.026L80.8728 142.072C76.2146 141.141 71.4729 143.238 69.0286 147.311L60.7582 161.095C58.1044 165.519 58.8016 171.18 62.4487 174.828L75.4645 187.844C79.856 192.235 86.8459 192.13 91.1819 187.932C90.5605 187.52 89.962 187.058 89.4131 186.508Z" fill="#A5694B"/>
<path id="Vector_16" d="M139.599 83.7322L125.76 79.1199C118.938 76.8455 115.975 68.8381 119.676 62.6715L126.053 52.0421C126.377 51.5009 126.806 51.0558 127.207 50.5859H124.433C120.484 50.5859 116.825 52.6578 114.793 56.0439L108.416 66.6726C104.715 72.8393 107.677 80.8466 114.5 83.121L128.34 87.734C132.379 89.08 136.832 88.0288 139.843 85.0184L140.891 83.971C140.46 83.8819 140.023 83.8736 139.599 83.7322Z" fill="#A5694B"/>
<path id="Vector_17" d="M185.277 173.903L165.936 169.068C158.613 167.237 155.139 158.852 159.024 152.379L165.521 141.549C166.295 140.259 167.323 139.171 168.508 138.298L162.291 139.542C159.185 140.163 156.485 142.066 154.856 144.782L148.358 155.612C144.474 162.085 147.948 170.47 155.271 172.301L174.612 177.136C178.686 178.155 182.761 176.772 185.46 173.93C185.399 173.915 185.339 173.918 185.277 173.903Z" fill="#A5694B"/>
<path id="Vector_18" d="M218.056 95.7121L211.149 84.1996C208.797 80.2806 209.053 75.3282 211.795 71.6709L219.26 61.7171C220.078 60.6264 221.093 59.7719 222.193 59.0632L221.307 58.7684C216.717 57.2384 211.662 58.8175 208.759 62.6881L201.294 72.6419C198.552 76.2986 198.296 81.2516 200.648 85.1706L207.556 96.6831C210.847 102.168 218.04 103.795 223.374 100.283C221.237 99.393 219.344 97.8585 218.056 95.7121Z" fill="#A5694B"/>
<path id="Vector_19" d="M256.258 167.764C251.868 163.374 251.868 156.257 256.258 151.866L262.765 145.36C264.334 143.791 266.332 142.721 268.509 142.286L280.508 139.886C277.941 137.446 274.276 136.255 270.559 136.998L256.304 139.85C254.127 140.285 252.129 141.355 250.559 142.924L244.052 149.43C239.663 153.82 239.663 160.938 244.052 165.328L247.237 168.512C250.446 171.722 255.222 172.563 259.376 170.883L256.258 167.764Z" fill="#A5694B"/>
<path id="Vector_20" d="M199.059 240.556C193.203 237.627 191.078 230.332 194.448 224.717L201.224 213.424C202.113 211.943 203.369 210.821 204.755 209.911L198.528 209.021C194.05 208.381 189.626 210.488 187.299 214.366L180.523 225.66C177.154 231.275 179.278 238.57 185.134 241.499L206.708 252.285C211.007 254.435 215.86 253.507 219.151 250.602L199.059 240.556Z" fill="#A5694B"/>
<path id="Vector_21" d="M130.929 268.988L121.07 265.044C114.066 262.243 111.754 253.474 116.466 247.584L123.806 238.409C124.272 237.826 124.796 237.317 125.348 236.851C120.824 235.118 115.643 236.439 112.565 240.288L105.225 249.463C100.512 255.353 102.824 264.121 109.828 266.923L119.688 270.867C122.368 271.939 125.358 271.939 128.038 270.867L131.971 269.294C131.623 269.192 131.268 269.124 130.929 268.988Z" fill="#A5694B"/>
</g>
<path id="Vector_22" d="M44.9937 230.442C44.1514 230.442 43.2918 230.251 42.4857 229.85C39.7083 228.461 38.5826 225.086 39.9719 222.308L45.5929 211.067C46.9822 208.29 50.3492 207.175 53.1342 208.553C55.9115 209.943 57.0373 213.317 55.648 216.095L50.027 227.336C49.042 229.306 47.058 230.442 44.9937 230.442Z" fill="#C98850"/>
<path id="Vector_23" d="M146.173 303.517H140.552C137.448 303.517 134.931 301.003 134.931 297.896C134.931 294.789 137.448 292.275 140.552 292.275H146.173C149.277 292.275 151.794 294.789 151.794 297.896C151.794 301.003 149.277 303.517 146.173 303.517Z" fill="#925F4A"/>
<path id="Vector_24" d="M123.685 196.724C122.842 196.724 121.983 196.532 121.176 196.131C118.399 194.742 117.273 191.367 118.663 188.59L124.284 177.349C125.67 174.577 129.037 173.457 131.825 174.835C134.602 176.224 135.728 179.599 134.339 182.376L128.718 193.617C127.733 195.588 125.748 196.724 123.685 196.724Z" fill="#C98850"/>
<g id="Group_4">
<path id="Vector_25" d="M89.9607 106.793C89.1183 106.793 88.2588 106.601 87.4527 106.2L76.2114 100.579C73.434 99.1898 72.3083 95.8152 73.6976 93.0378C75.0838 90.2662 78.4539 89.1405 81.2389 90.5241L92.4802 96.1444C95.2576 97.5337 96.3833 100.908 94.994 103.686C94.009 105.656 92.0243 106.793 89.9607 106.793Z" fill="#925F4A"/>
<path id="Vector_26" d="M157.415 28.1027H146.173C143.069 28.1027 140.552 25.589 140.552 22.4818C140.552 19.3746 143.069 16.8608 146.173 16.8608H157.415C160.519 16.8608 163.036 19.3746 163.036 22.4818C163.036 25.589 160.519 28.1027 157.415 28.1027Z" fill="#925F4A"/>
</g>
<path id="Vector_27" d="M179.903 112.413C177.839 112.413 175.855 111.278 174.87 109.307L169.249 98.0656C167.859 95.2882 168.985 91.9123 171.763 90.5243C174.546 89.1407 177.918 90.2664 179.304 93.0381L184.925 104.279C186.314 107.057 185.188 110.433 182.411 111.821C181.604 112.222 180.745 112.413 179.903 112.413Z" fill="#C98850"/>
<g id="Group_5">
<path id="Vector_28" d="M25.6509 139.936C24.8951 139.564 24.2094 139.012 23.6624 138.295C21.7841 135.822 22.2674 132.297 24.741 130.419L34.7515 122.819C37.2226 120.94 40.7456 121.428 42.6277 123.898C44.5061 126.371 44.0228 129.896 41.5491 131.774L31.5393 139.373C29.7838 140.705 27.5018 140.848 25.6509 139.936Z" fill="#925F4A"/>
<path id="Vector_29" d="M236.104 202.345C234.666 202.345 233.228 201.796 232.13 200.698L220.889 189.457C218.694 187.261 218.694 183.704 220.889 181.509C223.085 179.313 226.642 179.313 228.837 181.509L240.079 192.75C242.274 194.945 242.274 198.503 240.079 200.698C238.98 201.796 237.542 202.345 236.104 202.345Z" fill="#925F4A"/>
</g>
<path id="Vector_30" d="M247.346 258.552C245.907 258.552 244.469 258.003 243.372 256.905C241.176 254.71 241.176 251.152 243.372 248.957L248.993 243.336C251.188 241.141 254.745 241.141 256.941 243.336C259.136 245.531 259.136 249.089 256.941 251.284L251.32 256.905C250.222 258.003 248.784 258.552 247.346 258.552Z" fill="#C98850"/>
</g>
<g id="crumbs">
<g id="Group_6">
<path id="Vector_31" d="M258.587 22.4825V36.6635C258.587 40.6405 262.603 43.3593 266.295 41.8821L283.157 35.1373C285.291 34.2835 286.69 32.2167 286.69 29.9188V22.4825C286.69 19.3785 284.173 16.8616 281.069 16.8616H264.207C261.104 16.8616 258.587 19.3785 258.587 22.4825Z" fill="#FFE6A1"/>
<path id="Vector_32" d="M270.604 66.7942L267.017 91.9026C266.173 97.8088 270.091 103.346 275.941 104.515L286.234 106.574C290.702 107.468 295.266 105.577 297.793 101.786L301.664 95.9795C303.669 92.971 304.106 89.1819 302.836 85.7971L291.11 54.5272C289.651 50.6381 284.662 49.5576 281.725 52.4948L273.784 60.4353C272.064 62.1551 270.948 64.3868 270.604 66.7942Z" fill="#FFE6A1"/>
</g>
<g id="Group 1">
<g id="Group_7">
<path id="Vector_33" d="M300.778 96.7281L290.079 94.6696C283.999 93.4993 279.928 87.9624 280.804 82.0568L284.532 56.9491C284.865 54.7097 285.95 52.6646 287.529 51.0002C285.944 50.9232 284.316 51.4141 283.05 52.6315L274.795 60.5727C273.008 62.2924 271.848 64.5241 271.491 66.9316L267.763 92.0393C266.886 97.9461 270.958 103.482 277.038 104.652L287.737 106.711C292.38 107.603 297.124 105.713 299.75 101.923L303.27 96.8433C302.442 96.8593 301.613 96.8892 300.778 96.7281Z" fill="#EDC788"/>
<path id="Vector_34" d="M278.696 30.7786C274.858 32.2551 270.684 29.5364 270.684 25.56V17H264.842C261.616 17 259 19.5169 259 22.621V36.802C259 40.7789 263.174 43.4977 267.012 42.0205L284.537 35.2757C286.755 34.4219 288.21 32.3557 288.21 30.0572V27.1175L278.696 30.7786Z" fill="#EDC788"/>
<path id="Vector_35" d="M302.807 122.721L299.354 129.366C298.532 130.948 298.532 132.811 299.354 134.393L300.929 137.426C302.501 140.45 306.471 141.465 309.395 139.59L318.812 133.549C320.438 132.507 321.414 130.752 321.414 128.873V122.817C321.414 118.981 317.507 116.271 313.725 117.485L306.184 119.903C304.715 120.374 303.5 121.387 302.807 122.721Z" fill="#EDC788"/>
</g>
</g>
</g>
</g>
<defs>
<clipPath id="clip0_1_70">
<rect width="326" height="326" fill="white"/>
</clipPath>
</defs>
</svg>
